<?xml version="1.0" standalone="no"?><!DOCTYPE svg PUBLIC "-//W3C//DTD SVG 1.1//EN" "http://www.w3.org/Graphics/SVG/1.1/DTD/svg11.dtd"><svg t="1545100828394" class="icon" style="" viewBox="0 0 1024 1024" version="1.1" xmlns="http://www.w3.org/2000/svg" p-id="1736" xmlns:xlink="http://www.w3.org/1999/xlink" width="200" height="200"><defs><style type="text/css"></style></defs><path d="M679.619401 920.796461c-1.577356 0.479664-3.188534 0.572932-4.870431 0.572932-3.622076 0-7.359968-0.915256-10.903125-2.675048l-63.612836-33.606182-63.589262 33.606182c-3.521633 1.761842-7.132435 2.675048-10.96052 2.675048-4.89093 0-9.738813-1.464614-13.866176-4.595752-7.130385-5.144086-10.824206-14.106007-9.303221-22.93059l12.140206-70.846738L463.21523 772.791512c-6.491859-6.171058-8.801009-15.683363-6.059341-24.070303 2.754991-8.552978 10.17338-14.747609 18.952866-16.027737l71.258757-10.447034 31.798218-64.378453c3.885481-8.115336 12.128932-13.143605 21.067281-13.143605 8.974221 0 17.249445 5.028269 21.056006 13.143605l18.072457 36.625603c-13.773933-43.894353-30.770221-84.633995-50.889449-110.056171-29.653056-50.157654-79.21318-68.150167-117.279824-74.436016-5.865631-0.961377-11.841954 1.577356-15.32874 6.399616l-38.921429 53.198599-42.257552-57.199896 29.66023 99.835644c0.696947 2.560256 0.78919 5.257852 0.274679 7.820158l-30.681053 142.058349c-0.090193 0.388446-0.228558 0.916281-0.228558 1.532259l0 0.663125-0.252131-0.915256 0-0.59548-32.932808-142.336102c-0.571907-2.903605-0.457115-5.804136 0.3331-8.525305l31.959131-101.460146-44.670219 61.452299-38.350547-51.850826c-3.781964-5.279375-10.355816-7.635672-16.608868-6.103413-30.861439 7.544454-70.89286 25.604612-99.470772 66.710151-0.914231 1.302676-1.943253 2.810337-2.857484 4.046394-0.59343 0.618028-1.107941 1.18686-2.105191 1.896106-1.872533 3.109615-4.10174 6.494933-5.986572 10.288171 0.318751 0 0.684648 0.298252 0.934729 0.298252-4.265727 7.818108-8.39104 16.78003-12.343141 26.382528-0.412019-0.299277-0.733844-0.299277-1.338549-0.299277-37.504986 88.519476-71.432994 265.397514-71.078371 281.563615l1.544558 0c0.365897 17.351937 7.134485 53.791004 61.797698 52.602094l472.339602 0C614.62497 957.465111 664.189194 958.47056 679.619401 920.796461z" fill="#6988F2" p-id="1737"></path><path d="M578.36629 273.222797c0 113.917053-92.372159 206.254365-207.148097 206.254365-114.03287 0-206.289212-92.336287-206.289212-206.254365 0-114.377244 92.258393-206.714555 206.289212-206.714555C485.994131 66.508241 578.36629 158.846578 578.36629 273.222797z" fill="#6988F2" p-id="1738"></path><path d="M591.374605 682.786924c1.577356-3.019421 4.608051-4.961649 8.023093-4.961649 3.360721 0 6.436513 1.942228 7.912401 4.961649l29.32918 59.371707 65.568388 9.532804c3.371995 0.501187 6.15056 2.855434 7.178557 6.058316 1.005449 3.224406 0.138365 6.742965-2.284552 9.11976l-47.36884 46.2486 11.190103 65.27116c0.525785 3.291026-0.834287 6.697868-3.531883 8.755912-2.765241 1.964776-6.387317 2.149262-9.395464 0.639552l-58.59584-30.887062-58.673734 30.887062c-2.980474 1.509711-6.572828 1.325225-9.363691-0.639552-2.694521-2.058044-4.068942-5.442338-3.494985-8.733364l11.155256-65.293708-47.434435-46.2486c-2.422917-2.376795-3.316649-5.897404-2.24253-9.11976 1.015698-3.202883 3.863958-5.557129 7.153959-6.058316l65.566338-9.532804L591.374605 682.786924z" fill="#6988F2" p-id="1739"></path><path d="M854.120645 682.739778c1.465639-2.972275 4.505559-4.960625 7.944174-4.960625 3.37302 0 6.459061 1.9863 7.945199 4.960625l29.309707 59.39528 65.614509 9.554327c3.292051 0.478639 6.07984 2.788814 7.097588 6.058316 1.086418 3.199808 0.206009 6.742965-2.207683 9.11976L922.389703 813.070964l11.176779 65.317282c0.573957 3.291026-0.799439 6.697868-3.497035 8.643171-2.734493 2.008848-6.401665 2.260979-9.350367 0.752293l-58.653236-30.907561-58.649136 30.907561c-2.951777 1.508686-6.619974 1.256555-9.373941-0.752293-2.71092-1.943253-4.068942-5.352145-3.521633-8.643171l11.259798-65.317282-47.470307-46.202478c-2.44649-2.376795-3.327923-5.919952-2.264054-9.11976 0.982901-3.269503 3.806562-5.579678 7.153959-6.058316l65.54174-9.554327L854.120645 682.739778z" fill="#6988F2" p-id="1740"></path><path d="M715.752017 457.621716c1.498437-3.061443 4.604976-4.937051 7.990295-4.937051 3.338172 0 6.470335 1.875608 7.945199 5.005721l29.308682 59.371707 65.544814 9.51128c3.37097 0.457115 6.161834 2.83596 7.188806 6.07984 1.050545 3.180334 0.183461 6.700943-2.230231 9.05519l-47.446734 46.271148 11.222901 65.26911c0.561657 3.339197-0.801489 6.723491-3.555456 8.688267-2.778565 2.058044-6.367843 2.30915-9.408788 0.709246l-58.570217-30.771246-58.66246 30.771246c-2.97125 1.599904-6.629198 1.346748-9.334993-0.709246-2.756016-1.964776-4.082266-5.34907-3.532908-8.688267l11.155256-65.26911-47.401637-46.271148c-2.412667-2.354247-3.326898-5.874855-2.298901-9.05519 1.074119-3.243879 3.886506-5.620675 7.212379-6.07984l65.568388-9.51128L715.752017 457.621716z" fill="#6988F2" p-id="1741"></path></svg>