<?xml version="1.0" standalone="no"?><!DOCTYPE svg PUBLIC "-//W3C//DTD SVG 1.1//EN" "http://www.w3.org/Graphics/SVG/1.1/DTD/svg11.dtd"><svg t="1544598072044" class="icon" style="" viewBox="0 0 3925 1024" version="1.1" xmlns="http://www.w3.org/2000/svg" p-id="11885" xmlns:xlink="http://www.w3.org/1999/xlink" width="766.6015625" height="200"><defs><style type="text/css"></style></defs><path d="M2141.813 1016c-928.842 0-2111.805-85.861-2111.805-154.541 0-28.457-15.583-51.499 102.997-51.499h566.62v-149.169c0-54.917 73.43-176.472 88.302-198.936 13.319-20.2 17.003-12.431 29.434 0 14.783 14.739 88.302 148.681 88.302 198.936v149.169h257.494v-149.169c0-54.917 73.43-176.472 88.302-198.936 13.319-20.2 17.003-12.431 29.434 0 14.783 14.739 88.302 148.681 88.302 198.936v149.169h436.629c143.175-6.97 439.16-57.714 439.16-360.536 0-399.16-326.218-407.772-412.035-412.035 137.36-42.931 446.396-163.109 1339.146 772.481h278.848c16.515-11.276 26.948-27.88 30.189-51.499 55.805-81.554 115.873 0 102.997 51.499h154.497c86.394 0 154.497 23.041 154.497 51.499-0.133 68.768-937.456 154.63-1751.314 154.63zM1807.026 655.464c-14.207 0-25.749-23.086-25.749-51.499s11.543-51.499 25.749-51.499 25.749 23.041 25.749 51.499-11.543 51.499-25.794 51.499zM1626.781 500.924c28.457 0 51.499 34.584 51.499 77.248s-23.041 77.248-51.499 77.248-51.499-34.584-51.499-77.248 22.997-77.248 51.454-77.248zM1612.352 175.504c-20.111-20.111-3.818-69.035 36.404-109.258s109.258-36.404 109.258-36.404 3.818 69.035-36.404 109.258-89.19 56.737-109.302 36.404zM416.247 650.936c-26.637-9.545-36.892-49.857-22.553-90.078s47.637-65.040 74.451-55.494 36.892 50.078 22.464 90.034-47.725 65.128-74.363 55.538z" p-id="11886"></path></svg>