<?xml version="1.0" standalone="no"?><!DOCTYPE svg PUBLIC "-//W3C//DTD SVG 1.1//EN" "http://www.w3.org/Graphics/SVG/1.1/DTD/svg11.dtd"><svg t="1545303341832" class="icon" style="" viewBox="0 0 1024 1024" version="1.1" xmlns="http://www.w3.org/2000/svg" p-id="1130" xmlns:xlink="http://www.w3.org/1999/xlink" width="200" height="200"><defs><style type="text/css"></style></defs><path d="M223.4 910.4c-16.2 0-52.1-0.5-70.7-31.5-6.8-11.4-15.6-35.3 1.8-67.6 1.8-3.4 10.7-16.7 25-32.3-74.2-72.9-115.7-167.7-115.7-267.6 0-220 201.2-399 448.5-399s448.5 179 448.5 399c0 105.7-45.9 205.3-129.3 280.4-81.5 73.4-190.2 115.4-306.1 118.3-4.2 0.1-8.6 0.2-13 0.2H224.1c-0.2 0.1-0.5 0.1-0.7 0.1z m64.5-97h224.3c3.4 0 6.9-0.1 10.3-0.2 191.4-4.8 341.2-137.4 341.2-301.8 0-166.5-157.7-302-351.5-302s-351.5 135.5-351.5 302c0 87.7 44.5 171 122 228.6 12.9 9.6 20.2 24.9 19.5 41-0.4 12.3-5.7 23.9-14.3 32.4z" fill="#52A9FF" p-id="1131"></path><path d="M713.8 480.1H318.7c-24.7 0-44.9-20.2-44.9-44.9V428c0-24.7 20.2-44.9 44.9-44.9h395.1c24.7 0 44.9 20.2 44.9 44.9v7.2c0 24.7-20.2 44.9-44.9 44.9zM712.8 642.7H438.9c-24.7 0-44.9-20.2-44.9-44.9v-7.2c0-24.7 20.2-44.9 44.9-44.9h273.9c24.7 0 44.9 20.2 44.9 44.9v7.2c0 24.7-20.2 44.9-44.9 44.9z" fill="#00EFEF" p-id="1132"></path></svg>