<?xml version="1.0" standalone="no"?><!DOCTYPE svg PUBLIC "-//W3C//DTD SVG 1.1//EN" "http://www.w3.org/Graphics/SVG/1.1/DTD/svg11.dtd"><svg t="1545130404041" class="icon" style="" viewBox="0 0 1024 1024" version="1.1" xmlns="http://www.w3.org/2000/svg" p-id="1613" xmlns:xlink="http://www.w3.org/1999/xlink" width="200" height="200"><defs><style type="text/css"></style></defs><path d="M902.5942168 822.97621338l-76.60801143 0 0-77.33309765c0-6.14554805-4.95180791-11.1398001-11.05402764-11.1398001l-28.67981221 0c-6.01733145 0-10.96825518 4.99336787-10.96825517 11.1398001l0 77.33309765-76.60801142 0c-6.10310391 0-11.01069932 4.99336787-11.01069932 11.13980009l0 28.97868956c0 6.14554805 4.90759541 11.1398001 11.01069932 11.1398001l76.60801142 0 0 77.37642597c0 6.10221972 4.95092373 11.09647177 10.96825517 11.09647178l28.67981221 0c6.10221972 0 11.05402763-4.99336787 11.05402764-11.09647178l0-77.4197543 76.60801143 0c6.06065977 0 11.01069932-4.95092373 11.01069932-11.09647177L913.60491612 834.1151293C913.60491612 827.96958213 908.65399239 822.97621338 902.5942168 822.97621338L902.5942168 822.97621338 902.5942168 822.97621338 902.5942168 822.97621338zM791.2457334 672.96118115c13.10195391-14.51145146 12.42019599-37.25793633-1.62083321-50.87275664-39.56317998-38.36855567-85.52834033-67.64612256-135.24891679-86.7654079 62.60942637-45.75117128 103.53789053-121.20700342 103.53789053-206.35069395 0-139.30321026-109.51277783-252.52984336-244.1214958-252.52984336-134.60783467 0-244.07816748 113.22663398-244.07816748 252.52984336 0 85.22857881 40.9709083 160.68441094 103.62366299 206.43558223C219.95030498 594.56079248 110.39508388 747.64859873 110.39508388 926.68476465c0 19.8876999 15.5778583 36.02086875 34.78291612 36.02086874 19.16261367 0 34.78291612-16.13316797 34.78291612-36.02086875 0-187.40206933 145.02166435-340.48899141 325.08267714-345.31169852 2.90299747 0.08577246 5.84755489 0.17066075 8.74878398 0.17066073 2.90299747 0 5.84755489-0.08577246 8.70722403-0.17066073 81.94270078 2.17614287 159.61711904 35.08179346 219.58086446 93.25227656C756.07816748 688.19771885 778.14289531 687.4293043 791.2457334 672.96118115L791.2457334 672.96118115 791.2457334 672.96118115 791.2457334 672.96118115zM521.26165039 509.41710107c-2.4759044-0.04332833-4.95180791-0.08577246-7.46927227-0.08577245-2.43257607 0-4.86515127 0.04244414-7.34017148 0.08577245-92.86851182-4.01184932-167.17127959-83.39375742-167.17127959-180.44477841 0-99.61181367 78.27128877-180.5738792 174.51145107-180.5738792s174.5547794 80.96206552 174.5547794 180.5738792C688.34715752 425.93845625 614.04438974 505.36280849 521.26165039 509.41710107L521.26165039 509.41710107 521.26165039 509.41710107 521.26165039 509.41710107z" fill="#8595B2" p-id="1614"></path></svg>