<?xml version="1.0" standalone="no"?><!DOCTYPE svg PUBLIC "-//W3C//DTD SVG 1.1//EN" "http://www.w3.org/Graphics/SVG/1.1/DTD/svg11.dtd"><svg t="1545130421894" class="icon" style="" viewBox="0 0 1024 1024" version="1.1" xmlns="http://www.w3.org/2000/svg" p-id="1844" xmlns:xlink="http://www.w3.org/1999/xlink" width="200" height="200"><defs><style type="text/css"></style></defs><path d="M81.1776632 644.56071902c0-73.21770337 59.34301564-132.56071902 132.56071902-132.56071902s132.56071902 59.34301564 132.56071902 132.56071902c0 73.21770337-59.34301564 132.56071902-132.56071902 132.56071901S81.1776632 717.77842239 81.1776632 644.56071902zM1038.56063443 143.7757811l0 235.66349988c0 81.348095-65.94159308 147.28968809-147.28968809 147.2896881L653.42755792 526.72896905c-39.56200999 57.78174422-123.01634725 73.64484404-123.01634724 73.64484405l18.4112107-73.64484405-3.68224163 0c-81.348095 0-147.28968809-65.94159308-147.28968808-147.28968807L397.85049167 143.7757811c0-81.348095 65.94159308-147.28968809 147.28968808-147.2896881l346.13076659 0C972.61904005-3.51390697 1038.56063443 62.4276861 1038.56063443 143.7757811zM736.02761513 371.48563785l-54.33516554 0L681.69244961 423.6261869l54.33516552 0L736.02761513 371.48563785zM812.91283216 186.79909775c0-52.14054905-46.38152241-83.07138435-96.32745625-83.07138434-52.56768972 0-83.07138435 31.79984333-83.07138434 31.7998433l30.94556326 38.44260852c0 0 22.0934536-18.55850066 47.26526098-18.55850066 24.30279805 0 42.86129872 15.90728628 42.86129869 36.66040342 0 45.51251309-72.89366618 55.67550198-72.8936662 119.74651574l0 21.20971505 54.33516553 0 0-17.23289347C736.02761513 268.08827701 812.91283216 259.69276524 812.91283216 186.79909775zM272.65425719 821.30834394l-117.83174995 0c-81.348095 0-147.28968809 65.94159308-147.28968807 147.28968807l0 58.91587496 412.4111261 0 0-58.91587496C419.94394527 887.24993701 354.00235218 821.30834394 272.65425719 821.30834394z" fill="#8595B2" p-id="1845"></path></svg>