<?xml version="1.0" standalone="no"?><!DOCTYPE svg PUBLIC "-//W3C//DTD SVG 1.1//EN" "http://www.w3.org/Graphics/SVG/1.1/DTD/svg11.dtd"><svg t="1545130455437" class="icon" style="" viewBox="0 0 1024 1024" version="1.1" xmlns="http://www.w3.org/2000/svg" p-id="1673" xmlns:xlink="http://www.w3.org/1999/xlink" width="200" height="200"><defs><style type="text/css"></style></defs><path d="M493.36320001 664.18915555l-248.79407408 123.06204445c-28.03484445 12.98583703-50.48699259-12.1362963-40.04977777-40.17114075l122.94068148-248.91543703c2.06317037-10.67994075 6.18951111-21.11715555 14.56355555-29.4912l344.064-344.30672592H146.99330371c-44.17611852 0-80.09955555 35.80207408-80.09955555 80.09955555v640.67508148c0 44.17611852 35.80207408 80.09955555 80.09955555 80.09955556h640.67508148c44.17611852 0 80.09955555-35.80207408 80.09955556-80.09955556V304.5906963L522.85440001 649.6256c-8.37404445 8.37404445-18.6898963 12.50038518-29.4912 14.56355555z m-234.47324445 48.5451852c-6.5536 13.1072 6.06814815 26.57848889 20.02488889 20.02488888l153.64551111-93.0853926-80.70637037-80.70637036-92.96402963 153.76687408zM844.34488889 247.5501037l23.42305186-23.42305185v-19.6608c0-44.17611852-35.80207408-80.09955555-80.09955556-80.09955555h-21.23851852l-21.11715555 21.23851852 99.03217777 101.94488888zM382.19472593 508.96592592c10.67994075 10.67994075 62.74465185 62.86601482 100.48853333 100.48853333l321.4904889-321.61185184-101.21671112-99.88171852-320.76231111 321.00503703z m582.66358519-382.0506074l-100.48853333-100.48853334c-22.20942222-22.20942222-58.13285925-22.20942222-80.34228148 0l-97.93991112 98.06127407h80.34228148l37.62251852-37.74388147c11.04402963-11.04402963 29.12711111-11.04402963 40.17114074 0l60.31739259 60.31739259c11.04402963 11.04402963 11.04402963 29.12711111 0 40.17114074l-36.89434073 36.89434074v80.46364445l97.09037037-97.21173333c22.33078518-22.20942222 22.33078518-58.25422222 0.12136296-80.46364445z" fill="#8595B2" p-id="1674"></path></svg>