<?xml version="1.0" standalone="no"?><!DOCTYPE svg PUBLIC "-//W3C//DTD SVG 1.1//EN" "http://www.w3.org/Graphics/SVG/1.1/DTD/svg11.dtd"><svg t="1545148332691" class="icon" style="" viewBox="0 0 1024 1024" version="1.1" xmlns="http://www.w3.org/2000/svg" p-id="2085" xmlns:xlink="http://www.w3.org/1999/xlink" width="200" height="200"><defs><style type="text/css"></style></defs><path d="M213.845413 200.059432c-12.258185-11.703553-32.133861-11.703553-44.37772 0-12.267395 11.694343-12.267395 30.655184 0 42.358737l44.37772 42.35362c12.258185 11.698436 32.119535 11.698436 44.37772 0 12.258185-11.694343 12.258185-30.655184 0-42.35362L213.845413 200.059432 213.845413 200.059432 213.845413 200.059432zM810.150494 200.059432l-44.382836 42.358737c-12.248975 11.698436-12.248975 30.659277 0 42.35362 12.244882 11.698436 32.119535 11.698436 44.382836 0l44.373627-42.35362c12.262278-11.703553 12.262278-30.659277 0-42.358737C842.270029 188.360995 822.407656 188.360995 810.150494 200.059432L810.150494 200.059432 810.150494 200.059432zM135.38341 437.110359 72.617901 437.110359c-17.333784 0-31.388894 13.414521-31.388894 29.949103 0 16.546861 14.051017 29.953196 31.388894 29.953196l62.764486 0c17.333784 0 31.384801-13.406335 31.384801-29.953196C166.768211 450.52488 152.71617 437.110359 135.38341 437.110359L135.38341 437.110359 135.38341 437.110359zM951.376982 437.110359l-62.764486 0c-17.333784 0-31.388894 13.414521-31.388894 29.949103 0 16.546861 14.056134 29.953196 31.388894 29.953196l62.764486 0c17.333784 0 31.394011-13.406335 31.394011-29.953196C982.770993 450.52488 968.710766 437.110359 951.376982 437.110359L951.376982 437.110359 951.376982 437.110359zM480.611106 92.651167l0 59.906391c0 16.542768 14.051017 29.945009 31.384801 29.945009 17.328667 0 31.388894-13.402241 31.388894-29.945009L543.384801 92.651167c0-16.542768-14.060227-29.949103-31.388894-29.949103C494.662123 62.702064 480.611106 76.108399 480.611106 92.651167L480.611106 92.651167 480.611106 92.651167zM229.537813 511.988744c0 148.898215 126.45404 269.593088 282.458093 269.593088S794.458093 660.886959 794.458093 511.988744c0-148.884912-126.458133-269.571598-282.462187-269.571598S229.537813 363.103832 229.537813 511.988744L229.537813 511.988744 229.537813 511.988744zM449.226305 931.343717c0 16.529465 14.056134 29.953196 31.384801 29.953196l62.773695 0c17.328667 0 31.384801-13.423731 31.384801-29.953196 0-16.550954-14.056134-29.953196-31.384801-29.953196l-62.773695 0C463.281415 901.390521 449.226305 914.792763 449.226305 931.343717L449.226305 931.343717 449.226305 931.343717zM386.460796 841.48413c0 16.529465 14.051017 29.957289 31.380708 29.957289l188.308807 0c17.333784 0 31.384801-13.427824 31.384801-29.957289 0-16.550954-14.051017-29.957289-31.384801-29.957289l-188.308807 0C400.50772 811.526841 386.460796 824.933175 386.460796 841.48413L386.460796 841.48413 386.460796 841.48413zM386.460796 841.48413" p-id="2086" fill="#4F8CEC"></path></svg>