<?xml version="1.0" standalone="no"?><!DOCTYPE svg PUBLIC "-//W3C//DTD SVG 1.1//EN" "http://www.w3.org/Graphics/SVG/1.1/DTD/svg11.dtd"><svg t="1545114538367" class="icon" style="" viewBox="0 0 1024 1024" version="1.1" xmlns="http://www.w3.org/2000/svg" p-id="3801" xmlns:xlink="http://www.w3.org/1999/xlink" width="200" height="200"><defs><style type="text/css"></style></defs><path d="M380.16 530.88H122.88c-28.90666667 0-52.48-23.57333333-52.48-52.48V221.12c0-28.90666667 23.57333333-52.48 52.48-52.48h257.28c28.90666667 0 52.48 23.57333333 52.48 52.48v257.28c0 28.90666667-23.46666667 52.48-52.48 52.48zM122.88 217.6c-1.92 0-3.52 1.6-3.52 3.52v257.28c0 1.92 1.6 3.52 3.52 3.52h257.28c1.92 0 3.52-1.6 3.52-3.52V221.12c0-1.92-1.6-3.52-3.52-3.52H122.88zM380.16 939.62666667H122.88c-28.90666667 0-52.48-23.57333333-52.48-52.48V629.86666667c0-28.90666667 23.57333333-52.48 52.48-52.48h257.28c28.90666667 0 52.48 23.57333333 52.48 52.48v257.28c0 29.01333333-23.46666667 52.48-52.48 52.48zM122.88 626.45333333c-1.92 0-3.52 1.6-3.52 3.52v257.28c0 1.92 1.6 3.52 3.52 3.52h257.28c1.92 0 3.52-1.6 3.52-3.52V629.86666667c0-1.92-1.6-3.52-3.52-3.52l-257.28 0.10666666zM798.08 939.62666667H540.8c-28.90666667 0-52.48-23.57333333-52.48-52.48V629.86666667c0-28.90666667 23.57333333-52.48 52.48-52.48h257.28c28.90666667 0 52.48 23.57333333 52.48 52.48v257.28c0 29.01333333-23.57333333 52.48-52.48 52.48zM540.8 626.45333333c-1.92 0-3.52 1.6-3.52 3.52v257.28c0 1.92 1.6 3.52 3.52 3.52h257.28c1.92 0 3.52-1.6 3.52-3.52V629.86666667c0-1.92-1.6-3.52-3.52-3.52l-257.28 0.10666666z" fill="#F9C73D" p-id="3802"></path><path d="M703.78666667 497.28l-181.33333334-181.22666667c-10.88-10.88-10.88-28.58666667 0-39.46666666l181.22666667-181.22666667c10.88-10.88 28.58666667-10.88 39.46666667 0l181.22666666 181.22666667c10.88 10.88 10.88 28.58666667 0 39.46666666L743.14666667 497.28c-10.77333333 10.88-28.58666667 10.88-39.36 0z" fill="#FFEABB" p-id="3803"></path><path d="M723.52 530.77333333c-13.65333333 0-27.2-5.22666667-37.65333333-15.57333333L504.64 333.97333333c-20.69333333-20.69333333-20.69333333-54.50666667 0-75.2l181.22666667-181.33333333c20.69333333-20.69333333 54.50666667-20.69333333 75.2 0l181.22666666 181.22666667c20.69333333 20.69333333 20.69333333 54.50666667 0 75.2L761.06666667 515.2c-10.34666667 10.34666667-24 15.57333333-37.54666667 15.57333333z m0-418.24c-0.64 0-1.38666667 0.21333333-1.81333333 0.74666667l-181.33333334 181.22666667c-0.96 0.96-0.96 2.66666667 0 3.62666666l181.22666667 181.22666667c0.64 0.64 1.28 0.74666667 1.81333333 0.74666667s1.17333333-0.10666667 1.81333334-0.74666667l181.22666666-181.22666667c0.96-0.96 0.96-2.66666667 0-3.62666666L725.33333333 113.28c-0.53333333-0.53333333-1.17333333-0.74666667-1.81333333-0.74666667z" fill="#F9C73D" p-id="3804"></path></svg>