<?xml version="1.0" standalone="no"?><!DOCTYPE svg PUBLIC "-//W3C//DTD SVG 1.1//EN" "http://www.w3.org/Graphics/SVG/1.1/DTD/svg11.dtd"><svg t="1545114547467" class="icon" style="" viewBox="0 0 1024 1024" version="1.1" xmlns="http://www.w3.org/2000/svg" p-id="3918" xmlns:xlink="http://www.w3.org/1999/xlink" width="200" height="200"><defs><style type="text/css"></style></defs><path d="M949.71231055 339.80637148l-212.96073428 212.96073428a36.27951153 36.27951153 0 0 1-53.69367744 0l-212.23514443-212.96073428a36.27951153 36.27951153 0 0 1 0-53.33088252L683.78348867 73.87754961a36.27951153 36.27951153 0 0 1 53.69367745 0l212.23514443 213.3235292a36.27951153 36.27951153 0 0 1 0 52.60529267z" fill="#4E8CEE" p-id="3919"></path><path d="M401.52888652 960.91161435H98.95775732a36.27951153 36.27951153 0 0 1-36.27951152-36.27951152v-302.57112919a36.27951153 36.27951153 0 0 1 36.27951152-36.27951153h301.11994864a36.27951153 36.27951153 0 0 1 36.27951152 36.27951152v301.48274356a36.27951153 36.27951153 0 0 1-36.27951152 36.2795124zM401.52888652 509.23169229H98.95775732a36.27951153 36.27951153 0 0 1-36.27951152-36.27951241V171.10664141a36.27951153 36.27951153 0 0 1 36.27951152-36.2795124h301.11994864a36.27951153 36.27951153 0 0 1 36.27951152 36.2795124v301.11994863a36.27951153 36.27951153 0 0 1-36.27951152 36.27951152zM552.08886084 584.69307646h301.11994864a36.27951153 36.27951153 0 0 1 36.27951151 36.27951153v301.48274443a36.27951153 36.27951153 0 0 1-36.27951152 36.27951153h-301.11994863a36.27951153 36.27951153 0 0 1-36.2795124-36.27951153v-300.39435878a36.27951153 36.27951153 0 0 1 36.2795124-36.27951153z" fill="#A6C5F6" p-id="3920"></path></svg>