<?xml version="1.0" standalone="no"?><!DOCTYPE svg PUBLIC "-//W3C//DTD SVG 1.1//EN" "http://www.w3.org/Graphics/SVG/1.1/DTD/svg11.dtd"><svg t="1545099994748" class="icon" style="" viewBox="0 0 1024 1024" version="1.1" xmlns="http://www.w3.org/2000/svg" p-id="1934" xmlns:xlink="http://www.w3.org/1999/xlink" width="200" height="200"><defs><style type="text/css"></style></defs><path d="M724.30933333 283.98933333c31.85777778 39.936 47.78666667 83.39911111 47.78666667 130.50311112s-15.92888889 90.56711111-47.78666667 130.5031111c-31.85777778 39.936-75.32088889 71.56622222-130.38933333 94.7768889-55.06844445 23.21066667-114.80177778 34.816-179.54133333 34.816-29.12711111 0-58.93688889-2.61688889-89.42933334-8.07822223-41.984 29.80977778-89.088 51.54133333-141.19822222 65.08088889-12.17422222 3.072-26.73777778 5.80266667-43.69066666 8.07822222h-1.47911112c-3.75466667 0-7.168-1.36533333-10.35377778-4.096-3.18577778-2.61688889-5.12-6.25777778-5.91644444-10.69511111-0.34133333-1.024-0.56888889-2.16177778-0.56888889-3.29955555s0.11377778-2.27555555 0.22755556-3.29955556c0.22755555-1.024 0.56888889-2.048 1.024-3.072s0.91022222-1.82044445 1.25155555-2.61688889c0.34133333-0.68266667 0.91022222-1.59288889 1.82044445-2.73066667s1.47911111-2.048 2.048-2.61688888 1.25155555-1.36533333 2.27555555-2.61688889c1.024-1.13777778 1.70666667-1.93422222 2.048-2.27555556 1.70666667-2.048 5.57511111-6.25777778 11.60533334-12.74311111 6.144-6.37155555 10.46755555-11.37777778 13.19822222-14.90488889 2.61688889-3.52711111 6.48533333-8.41955555 11.37777778-14.79111111s9.216-12.85688889 12.74311111-19.56977778c3.52711111-6.71288889 7.05422222-14.22222222 10.35377777-22.30044444-41.984-24.34844445-74.97955555-54.38577778-98.98666666-89.99822222-23.89333333-35.61244445-35.84-73.50044445-35.84-113.77777778 0-47.104 15.92888889-90.56711111 47.78666666-130.50311111s75.20711111-71.56622222 130.38933334-94.77688889c55.06844445-23.21066667 114.80177778-34.816 179.54133333-34.816 64.62577778 0 124.58666667 11.60533333 179.54133333 34.816 54.95466667 23.32444445 98.304 54.95466667 130.16177778 95.00444444z m242.80177778 260.55111112c0 40.61866667-12.06044445 78.62044445-36.06755556 114.00533333s-57.00266667 65.30844445-98.98666666 89.65688889c3.41333333 8.07822222 6.82666667 15.58755555 10.35377778 22.30044444 3.52711111 6.71288889 7.85066667 13.19822222 12.74311111 19.56977778 4.89244445 6.25777778 8.76088889 11.264 11.37777777 14.79111111 2.61688889 3.52711111 7.168 8.53333333 13.19822223 14.90488889s9.89866667 10.69511111 11.60533333 12.74311111c0.34133333 0.34133333 1.024 1.024 2.048 2.27555555 1.024 1.13777778 1.82044445 2.048 2.27555556 2.6168889s1.13777778 1.36533333 2.048 2.61688888c0.91022222 1.13777778 1.36533333 2.16177778 1.82044444 2.73066667 0.34133333 0.68266667 0.79644445 1.47911111 1.25155556 2.61688889s0.91022222 2.048 1.024 3.072 0.22755555 2.16177778 0.22755555 3.29955556-0.22755555 2.27555555-0.56888889 3.29955555c-1.024 4.66488889-3.18577778 8.41955555-6.59911111 11.264-3.41333333 2.61688889-7.168 3.86844445-11.264 3.52711111-16.95288889-2.38933333-31.51644445-5.12-43.69066667-8.07822222-52.11022222-13.53955555-99.21422222-35.27111111-141.19822222-65.08088889-30.49244445 5.46133333-60.30222222 8.07822222-89.42933333 8.07822222-91.81866667 0-171.69066667-22.30044445-239.72977778-67.12888889 19.68355555 1.36533333 34.47466667 2.048 44.60088889 2.048 54.49955555 0 106.83733333-7.62311111 156.89955556-22.86933333 50.06222222-15.24622222 94.77688889-37.09155555 134.03022222-65.536 42.32533333-31.17511111 74.752-67.12888889 97.50755556-107.63377778 22.64177778-40.61866667 34.13333333-83.62666667 34.13333333-129.024 0-26.05511111-3.86844445-51.76888889-11.60533333-77.25511111 43.69066667 24.00711111 78.16533333 54.15822222 103.65155555 90.33955556 25.6 36.29511111 38.34311111 75.09333333 38.34311111 116.84977778z" p-id="1935" fill="#8590A6"></path></svg>